<?xml version="1.0" encoding="UTF-8" standalone="no"?>
<!-- Created with Inkscape (http://www.inkscape.org/) -->

<svg
   width="96.000008mm"
   height="95.999992mm"
   viewBox="0 0 96.000008 95.999992"
   version="1.1"
   id="svg1"
   xml:space="preserve"
   xmlns="http://www.w3.org/2000/svg"
   xmlns:svg="http://www.w3.org/2000/svg"><defs
     id="defs1"><style
       id="style1">.cls-1{fill:#ffffff;}</style></defs><g
     id="layer2"
     transform="matrix(1.0631844,0,0,1.1232875,-65.874923,-45.382197)"><g
       id="earth"
       transform="translate(7.3605944,-47.843866)"><g
         id="g1"
         transform="matrix(0.26458333,0,0,0.26458333,36.266116,80.698844)"><path
           style="fill:#5d9cec"
           d="m 410.50865,189.03809 c 0.61704,23.61151 -4.0394,46.7214 -13.75258,67.41324 -9.68453,20.63082 -23.59319,37.21065 -39.24098,50.66569 -15.21996,13.08716 -33.18102,24.16008 -52.09774,31.72185 -19.54187,7.81167 -41.28982,12.40633 -65.7507,12.68087 -24.12011,0.27071 -47.98312,-3.73172 -69.75261,-10.98066 -21.78319,-7.2535 -42.11898,-17.97164 -58.01198,-31.95431 -16.268515,-14.31304 -27.043093,-31.17679 -33.614865,-51.68596 -6.338901,-19.78242 -8.703781,-43.19539 -8.9708,-66.38538 -0.266169,-23.11624 1.52989,-46.43256 7.761797,-66.39452 6.49126,-20.79271 17.801527,-38.405789 35.088948,-53.220983 17.04335,-14.606031 37.73111,-24.589166 58.95793,-31.009154 20.4856,-6.195811 43.51243,-9.624626 66.08265,-10.873445 23.10664,-1.2785 46.53206,-0.320702 67.20526,5.793066 21.30161,6.299608 38.59644,17.648842 54.22736,34.253547 14.92386,15.853581 27.89066,36.195179 36.65998,55.658869 8.94496,19.85351 14.59955,41.02211 15.20833,64.31728 z"
           id="path3" /><g
           id="g5">
	<path
   style="fill:#a0d468"
   d="m 378.41547,174.13452 c -16.70946,0.99694 -28.79723,-5.41958 -34.96581,-11.45987 -6.43498,-6.30116 -7.71433,-13.01973 -5.29453,-15.7094 4.19748,-4.67445 15.29864,0.65873 25.64537,4.25283 10.36742,3.60128 19.79843,5.28963 20.6781,-4.32486 0.30449,-3.2418 7.8069,-12.25617 14.05659,-14.57137 -8.47218,-21.16453 -22.05007,-43.622914 -37.86162,-61.050669 -16.68139,-18.386514 -35.21815,-30.673456 -58.50926,-37.097929 -0.25144,4.055987 -0.80411,7.493333 -1.43356,7.796231 -21.7921,10.364047 -51.15691,14.041893 -72.51515,34.040113 -2.97249,2.787125 -7.26337,8.172585 -3.89349,11.522141 4.17558,4.162566 17.54461,-0.172183 23.69313,0.356077 9.06639,0.771409 24.0582,3.974923 38.36698,9.008754 13.80294,4.855872 25.62109,10.969172 26.14282,14.742462 1.05697,7.63404 -19.76359,18.53977 -38.81388,6.36455 -6.4153,-4.10044 -27.24144,-8.42836 -35.96771,-10.05579 -2.72978,-0.50575 -16.23654,0.22573 -29.84705,7.90067 -13.42075,7.56794 -27.14096,22.12851 -28.04318,48.187 -0.75106,21.51914 13.12959,34.01577 35.79058,34.56508 19.30236,0.46868 38.53666,0.26412 45.27789,22.5561 5.6817,18.78472 4.96907,37.48267 11.25212,56.22237 2.53708,7.56386 7.46015,18.22889 16.8494,19.85406 14.16135,2.45934 23.11206,-5.85263 31.47007,-14.20798 6.68244,-6.70465 15.54031,-12.01901 20.96241,-20.06838 8.5842,-12.7822 6.90245,-29.44397 16.42103,-42.65857 4.16471,-5.78726 11.75074,-16.09468 17.51195,-27.00743 5.52863,-10.47222 8.23791,-19.47034 3.0268,-19.15619 z"
   id="path4" />
	<path
   style="fill:#a0d468"
   d="m 115.2346,218.15939 c -4.81231,-7.02346 -10.11084,-13.64008 -14.78478,-20.54412 -2.183202,-3.21525 -7.470325,-12.23423 -13.312856,-21.13616 -5.819546,-8.8669 -12.356428,-17.78546 -16.390375,-20.21297 -1.143734,10.90814 -1.56309,22.64413 -1.429488,34.24728 0.235085,20.41675 2.130254,41.19093 6.853756,59.10821 4.884287,18.52719 12.807705,34.44037 25.145403,48.41445 0.80149,0.92645 15.3921,-12.51177 16.60352,-13.78954 5.29133,-5.57502 9.47446,-12.11356 11.13321,-19.67503 3.777,-17.35325 -5.95045,-34.90712 -13.81839,-46.41212 z"
   id="path5" />
</g><g
           style="opacity:0.2"
           id="g6">
	
</g></g></g><g
       id="Dice"
       data-name="Layer 1"
       transform="matrix(0.3462147,0,0,0.3601658,71.056927,49.505311)"
       style="opacity:0.72"><path
         d="M -1.7510662,34.876287 C 0.97593136,33.565074 2.587082,32.86518 4.0623067,32.016112 19.285387,23.254662 38.913177,13.591164 58.647791,5.241413 c 20.76267,-8.784723 43.973119,-17.092106 64.610679,-20.828506 2.20789,-0.395436 4.32237,-0.571181 6.44686,-0.830809 4.68569,-0.636209 8.17294,0.307349 10.0037,2.487867 5.47729,6.1913854 9.19208,13.59556702 13.83464,21.1652976 8.18678,13.2181824 16.52676,19.5631224 34.51676,32.0349044 7.42701,5.148461 14.14298,10.690859 17.13669,16.098775 3.55253,6.412138 8.08646,14.208674 11.49091,23.229029 0.65151,1.690916 1.06133,3.299739 1.21632,4.795198 1.37108,14.381267 -0.46172,31.184651 -6.36515,50.559131 -0.20131,0.66844 -0.84864,1.08763 -0.78071,1.85709 0.37477,4.98565 -1.3181,7.79933 -3.81002,9.62932 -2.43344,1.78703 -5.96968,2.84694 -9.18432,4.07491 -14.54707,5.57033 -24.86152,9.60742 -36.56756,18.2001 -11.13333,8.19142 -20.55487,17.31895 -33.10862,26.68406 -2.69232,2.0023 -5.50313,3.94188 -8.52442,5.82319 -7.23428,4.6152 -14.25376,6.34953 -18.17026,4.64158 -12.529554,-4.45214 -27.312314,-12.35837 -44.114904,-22.4731 -4.811328,-2.935 -10.285055,-5.90638 -15.752984,-8.72047 C 32.471167,168.9975 24.609187,163.12526 15.81908,157.74569 7.8523903,152.79943 3.127125,147.16702 1.6021373,139.30507 c -1.4131362,-7.23283 -4.2537276,-15.0695 -6.6374466,-23.0111 -3.147853,-10.48444 -6.1719477,-20.937468 -7.3672177,-31.803956 -0.743724,-6.707763 -0.131389,-13.283796 0.797296,-19.859566 0.246898,-1.780235 0.745676,-3.552561 1.145638,-5.311748 1.9004423,-8.305887 4.7745456,-16.417969 8.7085268,-24.442413 z M 3.826027,42.967098 C 2.2489794,46.069489 0.96203902,48.449304 0.25688085,50.705285 -2.0951664,58.107219 -3.8650643,65.540879 -3.9697011,73.178622 -4.1010817,82.768471 -2.2197975,92.312618 -7.9041962e-4,101.78584 3.3993676,116.3187 8.6290476,130.23293 11.012441,142.83686 c 0.68011,3.58172 2.506552,6.2929 6.51779,8.68062 7.553816,4.48259 14.725644,9.14021 22.130878,13.20231 7.002607,3.8521 13.658011,6.75767 20.611637,10.04122 7.710684,3.63766 15.946372,8.31956 23.573566,10.07532 5.986199,1.42622 11.383022,3.39759 15.427517,6.14723 3.084301,2.04237 6.083081,3.99548 11.305111,2.93341 1.55373,-2.59177 2.87971,-5.0928 3.67226,-7.51379 5.46836,-16.67831 -1.92374,-31.90137 -9.50907,-46.52167 -4.80501,-9.28136 -8.824609,-17.32941 -12.642956,-26.935 -2.111319,-5.40025 -3.313066,-11.06665 -6.490608,-16.6343 -8.875375,1.797178 -15.8541,-1.182971 -22.199609,-4.046106 C 60.20524,90.815655 57.286794,89.134934 54.519515,87.346253 38.253791,76.668686 30.961361,67.046194 16.689689,53.201714 13.205719,49.831654 8.9327896,46.390116 3.826027,42.967098 Z M 181.23539,40.888297 c -2.25815,-1.580548 -4.5622,-3.114644 -6.81859,-4.564431 C 163.27423,29.804135 156.0842,24.845176 149.43327,17.95391 143.011,11.299562 138.89761,4.6490155 134.04192,-2.2420175 c -3.3223,-4.7296433 -8.87005,-6.283297 -18.3558,-4.5361391 C 93.002491,-2.6511915 67.189295,8.4498592 46.125872,18.58818 35.559215,23.531368 25.674352,28.752085 17.041223,33.802004 c -1.798104,1.076489 -4.269228,1.92602 -4.211584,4.980369 0.551977,0.593122 1.149206,1.134313 1.781262,1.613603 11.587028,7.285203 19.133284,17.834677 28.603449,25.805531 5.001097,4.193124 9.762019,8.528759 15.849035,11.902353 8.392566,4.737263 17.438378,9.227887 31.128205,9.565811 12.26992,-12.036246 27.56345,-23.691946 44.39704,-32.515451 17.01065,-8.916316 32.84166,-13.516464 46.64676,-14.265923 z M 96.963896,93.336121 c 0.07694,1.70982 0.05057,2.997784 0.312052,4.133181 4.773352,21.287208 19.206172,41.360228 24.215712,62.877418 1.79195,7.64966 2.28283,15.5602 0.0562,23.86541 -0.71017,2.6834 -1.9219,5.67849 -1.38886,8.09343 1.22517,-0.63701 2.44564,-1.38388 3.63684,-2.23011 15.30496,-12.17755 25.56782,-25.29574 40.50749,-36.37234 5.82653,-4.32192 12.47097,-8.77233 19.94183,-11.1104 3.81466,-1.20182 8.0183,-2.46059 10.95794,-4.57415 2.99151,-2.15084 5.08099,-5.45746 4.5699,-10.97249 -0.26726,-2.92072 1.54156,-5.16896 2.22946,-7.72228 1.52272,-5.6998 3.01755,-11.21442 3.57257,-16.62142 0.93822,-8.863215 0.64397,-16.971563 -0.21141,-24.363264 -1.19178,-11.574813 -6.94058,-21.284982 -13.85194,-30.473074 -2.60633,-0.392778 -5.18879,-0.567286 -7.73574,-0.52856 -13.63152,0.768974 -28.72163,5.295621 -44.31791,13.22863 -1.13607,0.584081 -2.2134,1.215311 -3.22381,1.887715 -10.88372,7.276147 -20.86188,14.747816 -31.30452,22.993932 -2.99663,2.517206 -5.661856,5.161598 -7.965824,7.888372 z"
         id="path1" /><path
         class="cls-1"
         d="m 3.826027,42.967098 c 5.1067626,3.423018 9.379692,6.864556 12.863662,10.234616 14.317992,13.811096 21.530332,23.4389 37.821544,34.110305 2.763153,1.822896 5.686763,3.505286 8.885892,4.922082 6.375804,2.867317 13.300713,5.851146 22.19399,4.049845 3.174922,5.568424 4.37483,11.235174 6.484749,16.635734 3.745394,9.57299 7.858052,17.69974 12.640866,26.9354 7.58721,14.61943 14.98805,29.84111 9.53701,46.51535 -0.79006,2.42044 -2.11337,4.92095 -3.66414,7.51211 -5.24098,1.10669 -8.25153,-0.90954 -11.309033,-2.93166 -4.056945,-2.73386 -9.459664,-4.69185 -15.448383,-6.10627 -7.600304,-1.82885 -15.845316,-6.43434 -23.572519,-10.07744 -6.951797,-3.28329 -13.58698,-6.18556 -20.610791,-10.04199 -7.392627,-4.06755 -14.566317,-8.75081 -22.107037,-13.20504 -4.011191,-2.38782 -5.837563,-5.09903 -6.51768,-8.68064 C 8.6407379,130.23594 3.4452367,116.3329 0.01064316,101.78943 -2.2085228,92.315998 -4.1010137,82.768769 -3.9585675,73.182119 -3.8540778,65.544265 -2.0844981,58.110501 0.26735912,50.708321 0.96313738,48.447025 2.2478391,46.071732 3.826027,42.967098 Z M 17.246664,67.77721 c -3.85393,-1.839575 -6.725766,-1.524189 -8.5865545,1.572127 -1.0579667,1.485475 -1.9015871,3.169283 -2.4796255,5.024292 -1.2394322,5.337888 -0.4862595,9.79899 1.6863294,13.731422 2.1423646,3.877726 5.7432416,7.330196 9.9959356,10.226784 6.778031,4.584115 9.154758,1.544025 8.895021,-6.721365 C 26.547723,88.216753 25.956803,84.399527 25.032196,80.771022 23.81736,74.947585 21.15229,69.952249 17.246664,67.77721 Z m 59.038539,62.42171 c 1.105065,-0.30671 2.519827,-0.6148 3.903694,-1.16986 4.24047,-1.73109 5.345242,-4.54509 2.988599,-8.92156 -5.277582,-9.76712 -9.283126,-12.43687 -18.439926,-15.21124 -3.373493,-0.99958 -5.371133,0.1567 -6.755278,3.02101 -1.851961,3.82928 -1.229789,7.98797 0.548476,12.26048 2.978109,7.08105 7.298419,10.11729 14.778561,10.12212 0.863447,-0.0438 1.702418,-0.089 2.975874,-0.10095 z M 42.31693,145.95381 c -1.689456,-4.74128 -9.575343,-12.79861 -15.417048,-16.19531 -7.410829,-4.32688 -12.062065,-3.0008 -10.926048,4.02311 0.220238,1.28908 0.542063,2.60722 0.961851,3.94174 2.452821,7.89671 9.828828,13.91563 18.919245,15.32145 3.139194,0.48245 5.928397,0.3304 6.468201,-1.75079 0.297071,-1.6763 0.280628,-3.45409 -0.0062,-5.3402 z m 64.25227,21.76548 c -1.43108,-6.15192 -10.989306,-12.08382 -18.281949,-12.86009 -1.243865,-0.18479 -2.386507,-0.064 -3.260421,0.33309 -4.789607,3.00392 -6.041709,4.88827 -3.979401,10.46013 2.274281,6.17768 4.997797,9.54172 12.810311,10.82845 1.970541,0.33627 3.944453,0.40716 5.883683,0.19166 5.602377,-0.67551 8.064757,-3.6666 6.827777,-8.95324 z"
         id="path2" /><path
         class="cls-1"
         d="m 181.23539,40.888297 c -6.8934,0.375221 -15.75625,1.774438 -26.62992,5.53665 -10.94271,3.786101 -21.9089,9.27435 -32.25826,15.807135 -10.15807,6.412033 -18.21839,12.876685 -23.766198,17.70713 -5.475629,4.767602 -8.400971,7.765296 -8.400971,7.765296 C 76.50317,87.385144 67.451371,82.898399 59.054484,78.162888 52.952208,74.718813 48.203803,70.404391 43.198462,66.263147 33.741316,58.230974 26.197929,47.681179 14.610901,40.395976 c -0.632056,-0.47929 -1.229285,-1.020481 -1.781262,-1.613603 -0.0205,-3.04367 2.423439,-3.901902 4.211584,-4.980369 C 25.674352,28.752085 35.559215,23.531368 46.125872,18.58818 67.20809,8.4522663 92.948694,-2.5979052 115.68612,-6.7781566 c 9.52989,-1.7380649 15.03542,-0.1907741 18.3558,4.5361391 4.85569,6.891033 8.96908,13.5415795 15.39135,20.1959275 6.65093,6.891266 13.84096,11.850225 24.98353,18.369956 2.25639,1.449787 4.56044,2.983883 6.81859,4.564431 z M 95.121618,23.641754 C 91.549015,22.049931 84.756124,26.117249 78.28608,32.398875 67.878045,42.496787 66.870615,53.466744 74.954091,55.465298 c 6.593729,1.636368 13.239997,-2.087501 21.830615,-9.45064 6.447684,-5.534086 8.341884,-9.738499 9.743844,-15.173145 1.35388,-5.223535 -2.73081,-5.407652 -6.14955,-6.547931 -1.681103,-0.326905 -3.431549,-0.546968 -5.257382,-0.651828 z"
         id="path3-9" /><path
         class="cls-1"
         d="m 96.963896,93.336121 c 2.303968,-2.726774 4.969194,-5.371166 7.965824,-7.888372 10.44264,-8.246116 20.4208,-15.717785 31.30452,-22.993932 1.01041,-0.672404 2.08774,-1.303634 3.22381,-1.887715 15.59628,-7.933009 30.68639,-12.459656 44.31791,-13.22863 2.54695,-0.03873 5.12941,0.135782 7.73574,0.52856 6.91136,9.188092 12.66016,18.898261 13.85194,30.473074 0.85502,7.388575 1.11572,15.487188 0.21141,24.363264 -0.57173,5.40103 -2.04927,10.91944 -3.57257,16.62142 -0.6879,2.55332 -2.49672,4.80156 -2.22946,7.72228 0.51109,5.51504 -1.57997,8.82763 -4.57244,10.98163 -2.94129,2.11716 -7.14316,3.37508 -10.9554,4.56501 -7.45753,2.35125 -14.1051,6.78092 -19.94183,11.1104 -14.93967,11.0766 -25.18618,24.19417 -40.50749,36.37234 -1.1912,0.84623 -2.41167,1.5931 -3.63684,2.23011 -0.54913,-2.37296 0.68074,-5.41775 1.38886,-8.09343 2.221,-8.30517 1.72925,-16.2145 -0.0562,-23.86541 -5.0226,-21.51505 -19.46044,-41.58536 -24.215712,-62.877418 -0.261481,-1.135397 -0.235114,-2.423361 -0.312052,-4.133181 z M 123.8683,150.71211 c 0.57329,1.37911 1.25918,3.0055 1.82985,4.80749 1.24114,3.91512 3.41545,6.48488 6.91197,7.23858 4.34322,0.92955 8.9056,0.96546 12.29805,-3.52371 4.07545,-5.41947 5.42483,-11.71887 3.81472,-17.17725 -1.61361,-5.47023 -6.10259,-9.62869 -12.18495,-10.88812 -4.57324,-0.9471 -8.50697,1.07286 -10.68979,4.82094 -2.66117,4.57032 -2.55856,9.37358 -1.97985,14.72207 z m 29.69296,-88.225984 c -0.20357,6.44041 8.9956,10.936065 20.47149,12.280534 2.98211,0.303087 5.91036,0.07354 7.94614,-0.669061 3.68117,-1.77728 6.61694,-3.594121 8.70368,-5.564207 1.56272,-1.604591 0.63629,-4.138576 -1.75055,-6.644486 -2.38065,-2.499408 -6.1707,-4.914907 -10.44528,-6.294185 -8.09254,-2.646638 -18.63281,-1.33981 -22.85192,3.155488 -0.96081,1.184352 -1.66008,2.441663 -2.07356,3.735917 z"
         id="path4-4" /><path
         d="m 17.246664,67.77721 c 3.905626,2.175039 6.570696,7.170375 7.785532,12.993812 0.924607,3.628505 1.515527,7.445731 1.725574,10.839448 0.259737,8.26539 -2.11699,11.30548 -8.895021,6.721365 C 13.614059,95.461198 10.012652,92.010032 7.868742,88.125161 5.6946491,84.185597 4.9409166,79.712099 6.180484,74.373629 6.7585224,72.51862 7.6021428,70.834812 8.6601095,69.349337 10.520898,66.253021 13.392734,65.937635 17.246664,67.77721 Z m 3.579915,19.89188 c -1.363379,-3.320168 -2.294538,-6.229985 -3.445848,-8.974854 -0.71682,-1.681564 -2.862703,-2.459952 -3.79024,-1.686009 -1.581111,1.360909 -1.934021,4.213996 -0.811699,7.252889 0.483606,1.496766 1.339903,2.920854 2.356467,3.996189 1.016565,1.075335 2.114992,1.724462 3.070299,1.814174 1.011532,0.04074 1.579066,-1.361438 2.621021,-2.402389 z"
         id="path5-8" /><path
         d="m 76.285203,130.19892 c -1.196923,0.0576 -2.158162,0.1083 -3.02612,0.10709 -7.499503,-0.0445 -11.842064,-3.04629 -14.774537,-10.12737 -1.796493,-4.27214 -2.400286,-8.43071 -0.54969,-12.25832 1.38199,-2.86072 3.429836,-4.02543 6.751436,-3.0168 9.153003,2.77919 13.156064,5.44946 18.434848,15.21696 2.356994,4.37628 1.253668,7.18926 -2.98507,8.91817 -1.347066,0.49391 -2.779364,0.80878 -3.850867,1.16027 z M 64.850476,117.1999 c 0.259064,0.66016 0.336996,1.33295 0.702552,1.73895 1.06807,1.07518 2.272971,2.51615 3.491084,2.83496 1.443068,0.271 2.762501,-0.12424 3.542368,-1.05798 0.422244,-0.84064 -0.307082,-2.64844 -1.068436,-3.77774 -0.985764,-1.21314 -2.173649,-2.28567 -3.491435,-3.16324 -0.684791,-0.41636 -1.478329,-0.53499 -2.129716,-0.32126 -0.651702,0.21384 -1.082356,0.73442 -1.154733,1.40293 -0.0095,0.75968 0.05148,1.55753 0.08875,2.29347 2e-6,0 0.01957,0.0499 0.01957,0.0499 z"
         id="path6" /><path
         d="m 42.31693,145.95381 c 0.315676,1.90308 0.360524,3.69852 0.0902,5.39309 -0.539977,2.08095 -3.32641,2.25038 -6.468813,1.75168 -9.091444,-1.40448 -16.463728,-7.42269 -18.915766,-15.31631 -0.419657,-1.33402 -0.741447,-2.65164 -0.961759,-3.94019 -1.194212,-7.03931 3.469138,-8.34437 10.919984,-4.02123 5.716792,3.28568 13.637226,11.36688 15.336154,16.13296 z m -15.679061,-10.844 c -0.676229,-0.0588 -1.275974,0.0169 -1.772548,0.22472 -2.074923,1.90548 0.429061,7.15155 4.811917,9.45978 1.474981,0.60949 2.845988,0.7145 3.720932,0.29592 1.399358,-0.68019 0.762652,-2.53843 -0.423882,-4.45238 -1.373158,-2.20497 -3.867141,-4.39614 -6.336419,-5.52804 z"
         id="path7" /><path
         d="m 106.5692,167.71929 c 1.23698,5.28664 -1.2254,8.27773 -6.827777,8.95324 -1.93923,0.2155 -3.913142,0.14461 -5.883683,-0.19166 -7.808215,-1.24761 -10.537493,-4.65474 -12.810311,-10.82845 -2.059507,-5.56273 -0.809129,-7.45688 3.979401,-10.46013 0.873914,-0.39713 2.016556,-0.51788 3.260421,-0.33309 7.292643,0.77627 16.850869,6.70817 18.281949,12.86009 z m -16.975366,-6.54135 c -0.557776,0.60269 -0.986698,1.28764 -1.286554,2.04014 -0.584246,3.38356 2.135131,6.42739 6.606477,6.44016 1.292693,0.0838 2.413113,-0.4892 2.872099,-1.49697 0.459882,-1.00974 0.162782,-2.25658 -0.779186,-3.24302 -1.778061,-2.12589 -4.654357,-3.47691 -7.412836,-3.74031 z"
         id="path8" /><path
         d="m 95.121618,23.641754 c 1.806993,0.105965 3.539996,0.324905 5.204892,0.648696 3.4295,1.141416 7.47931,1.322926 6.14586,6.54993 -1.40512,5.440776 -3.27888,9.606322 -9.747525,15.178857 -8.59189,7.366532 -15.267029,11.090506 -21.824271,9.449582 -8.027746,-2.005576 -7.023339,-12.969267 3.335799,-23.072176 6.559197,-6.277481 13.353761,-10.344127 16.885245,-8.754889 z m -5.628894,7.936944 c -1.779155,1.215235 -3.508788,2.525063 -5.167227,3.916905 -1.344794,1.238149 -2.564873,2.571449 -3.618667,3.957488 -1.755366,2.260571 -2.064371,5.402699 -0.310647,5.736886 1.584175,0.317859 3.445215,0.23601 5.494217,-0.213075 2.915121,-0.689729 6.405294,-3.753254 8.570117,-7.13057 1.845467,-2.845198 0.844302,-3.994067 -1.016616,-4.661762 -1.137985,-0.379484 -2.336185,-0.904419 -3.933959,-1.568586 -2e-6,-6e-6 -0.01722,-0.03728 -0.01722,-0.03729 z"
         id="path9" /><path
         d="m 123.8683,150.71211 c -0.58774,-5.38169 -0.68243,-10.14985 1.97985,-14.72207 2.18282,-3.74808 6.11655,-5.76804 10.68979,-4.82094 6.07633,1.26076 10.57776,5.41629 12.1969,10.89284 1.61566,5.46477 0.26309,11.77529 -3.83796,17.22014 -3.39263,4.48889 -7.95305,4.45216 -12.29372,3.52168 -3.49459,-0.75448 -5.66652,-3.32482 -6.90582,-7.24011 -0.5661,-1.83797 -1.25912,-3.48053 -1.82904,-4.85154 z m 12.33487,-9.70447 c -0.92593,0.47503 -1.77031,1.06636 -2.51077,1.75399 -2.31027,2.77372 -2.34513,6.57333 -0.66264,9.65032 0.29199,0.72926 0.84983,1.30631 1.53418,1.5862 0.68648,0.28077 1.44417,0.24077 2.1052,-0.11843 3.35264,-1.40967 5.62844,-8.18541 2.96516,-11.35447 -0.72132,-0.85438 -2.24709,-1.04778 -3.43113,-1.51761 z"
         id="path10" /><path
         d="m 153.56126,62.486126 c 0.40835,-1.308305 1.10892,-2.5795 2.07676,-3.776457 4.2201,-4.493211 14.75792,-5.797033 22.84812,-3.150331 4.27458,1.407775 8.06527,3.836833 10.44648,6.336963 2.38709,2.506301 3.31167,5.025377 1.74735,6.596827 -2.08618,1.968767 -5.02145,3.784333 -8.7024,5.560462 -2.03566,0.742069 -4.96393,0.971286 -7.94603,0.668111 -11.47469,-1.299786 -20.67385,-5.795165 -20.47028,-12.235575 z m 23.83195,1.129465 c -0.005,-0.174212 0.32862,-0.656801 -0.0273,-1.030818 -0.90401,-0.804706 -2.01108,-1.883472 -3.38738,-2.178268 -1.83419,-0.256671 -3.61919,-0.103697 -4.91603,0.410502 -1.1982,0.595824 -1.93984,1.399843 -2.11679,2.284471 -0.49853,1.670347 2.51157,3.730161 5.39574,3.831082 3.65682,0.127393 4.27849,-1.147929 4.88477,-2.417521 0.0643,-0.199494 0.058,-0.432289 0.16631,-0.9232 0,8e-6 6.4e-4,0.02374 6.4e-4,0.02375 z"
         id="path11" /><path
         class="cls-1"
         d="m 20.826579,87.66909 c -1.040822,1.039819 -1.623965,2.388813 -2.621021,2.402389 -0.955307,-0.08971 -2.053734,-0.738839 -3.070299,-1.814174 -1.016564,-1.075335 -1.872861,-2.499423 -2.356467,-3.996189 -1.122322,-3.038893 -0.769412,-5.89198 0.811699,-7.252889 0.927537,-0.773943 3.07342,0.0044 3.79024,1.686009 1.15131,2.744869 2.066892,5.647151 3.445848,8.974854 z"
         id="path12" /><path
         class="cls-1"
         d="m 64.830908,117.14999 c -0.03694,-0.72949 -0.09885,-1.54008 -0.06719,-2.34866 0.07288,-0.66881 0.504047,-1.18976 1.15611,-1.40393 0.651748,-0.21408 1.445445,-0.0957 2.130139,0.32055 1.317543,0.8774 2.505,1.94991 3.490194,3.16315 0.760768,1.12944 1.489069,2.93771 1.06615,3.77885 -0.780709,0.9344 -2.100759,1.33034 -3.544059,1.05982 -1.218261,-0.31846 -2.422576,-1.75956 -3.490243,-2.83475 -0.40468,-0.40128 -0.482594,-1.07516 -0.741102,-1.73503 z"
         id="path13" /><path
         class="cls-1"
         d="m 26.637869,135.10981 c 2.495262,1.13585 5.020143,3.35738 6.392183,5.58509 1.186476,1.91326 1.822898,3.77092 0.423024,4.45113 -0.875249,0.41857 -2.246494,0.31372 -3.721523,-0.29547 -4.382489,-2.30703 -6.917929,-7.56165 -4.810733,-9.45653 0.476352,-0.22556 1.057306,-0.32145 1.717049,-0.28422 z"
         id="path14" /><path
         class="cls-1"
         d="m 89.593834,161.17794 c 2.758479,0.2634 5.634775,1.61442 7.412836,3.74031 0.941968,0.98644 1.239068,2.23328 0.779186,3.24302 -0.458986,1.00777 -1.579406,1.58076 -2.872099,1.49697 -4.461577,0.0235 -7.193658,-3.06657 -6.606477,-6.44016 0.299856,-0.7525 0.728778,-1.43745 1.286554,-2.04014 z"
         id="path15" /><path
         class="cls-1"
         d="m 89.509942,31.615984 c 1.619908,0.707123 2.716774,1.278307 3.929611,1.639873 1.862376,0.666617 2.865351,1.814482 1.02237,4.659104 -2.195492,3.378046 -5.650162,6.440305 -8.565962,7.131119 -2.049499,0.449862 -3.911324,0.532568 -5.496511,0.21558 -1.70182,-0.335005 -1.449743,-3.473117 0.304827,-5.734621 1.052776,-1.385928 2.271951,-2.719207 3.615971,-3.957412 1.664403,-1.404625 3.401643,-2.726796 5.189694,-3.953643 z"
         id="path16" /><path
         class="cls-1"
         d="m 136.20317,141.00764 c 1.18404,0.46983 2.70981,0.66323 3.43113,1.51761 2.66328,3.16906 0.38748,9.9448 -2.96516,11.35447 -0.66103,0.3592 -1.41872,0.3992 -2.1052,0.11843 -0.68435,-0.27989 -1.24219,-0.85694 -1.53418,-1.5862 -1.68249,-3.07699 -1.64763,-6.8766 0.66264,-9.65032 0.74046,-0.68763 1.58484,-1.27896 2.51077,-1.75399 z"
         id="path17" /><path
         class="cls-1"
         d="m 177.39257,63.591839 c -0.12642,0.464913 -0.13764,0.69527 -0.2367,0.898437 -0.60655,1.269816 -1.22849,2.545531 -4.88508,2.420092 -2.88401,-0.09938 -5.89341,-2.15774 -5.39442,-3.828323 0.17719,-0.884715 0.91903,-1.689077 2.11733,-2.285467 1.29691,-0.51481 3.08184,-0.668641 4.91584,-0.41292 1.3761,0.294077 2.48279,1.372222 3.38652,2.176374 0.42637,0.399198 0.0924,0.879627 0.0965,1.031807 z"
         id="path18" /></g></g></svg>
